HIERARCHY
ROOT Hips
{
	OFFSET 0.00 0.00 0.00
	CHANNELS 6 Xposition Yposition Zposition Zrotation Xrotation Yrotation
	JOINT Spine
	{
		OFFSET 0 13.7848 0.0644
		CHANNELS 3 Zrotation Xrotation Yrotation
		JOINT Spine1
		{
			OFFSET 0 12.0447 -0
			CHANNELS 3 Zrotation Xrotation Yrotation
			JOINT Spine2
			{
				OFFSET -0 17.8005 -0
				CHANNELS 3 Zrotation Xrotation Yrotation
				JOINT Neck
				{
					OFFSET 0 40.9166 -0
					CHANNELS 3 Zrotation Xrotation Yrotation
					JOINT Head
					{
						OFFSET -0 21.2887 0
						CHANNELS 3 Zrotation Xrotation Yrotation
						JOINT HeadTop_End
						{
							OFFSET 0 17.4474 0
							CHANNELS 3 Zrotation Xrotation Yrotation
						}
					}
				}
				JOINT LeftShoulder
				{
					OFFSET 17.3995 23.8766 -6.0721
					CHANNELS 3 Zrotation Xrotation Yrotation
					JOINT LeftArm
					{
						OFFSET -0 19.9201 -0
						CHANNELS 3 Zrotation Xrotation Yrotation
						JOINT LeftForeArm
						{
							OFFSET -0 49.2901 -0
							CHANNELS 3 Zrotation Xrotation Yrotation
							JOINT LeftHand
							{
								OFFSET 0 31.562 0
								CHANNELS 3 Zrotation Xrotation Yrotation
								JOINT LeftHandThumb1
								{
									OFFSET -7.9466 6.134 2.4863
									CHANNELS 3 Zrotation Xrotation Yrotation
									JOINT LeftHandThumb2
									{
										OFFSET -0.0255 -7.7944 -0.0327
										CHANNELS 3 Zrotation Xrotation Yrotation
										JOINT LeftHandThumb3
										{
											OFFSET -0.0205 -8.3869 0.0307
											CHANNELS 3 Zrotation Xrotation Yrotation
											JOINT LeftHandThumb4
											{
												OFFSET 0.0565 -7.2511 -0.013
												CHANNELS 3 Zrotation Xrotation Yrotation
											}
										}
									}
								}
								JOINT LeftHandPinky1
								{
									OFFSET 10.9531 18.9207 3.2871
									CHANNELS 3 Zrotation Xrotation Yrotation
									JOINT LeftHandPinky2
									{
										OFFSET -0.0034 -4.9187 0.0963
										CHANNELS 3 Zrotation Xrotation Yrotation
										JOINT LeftHandPinky3
										{
											OFFSET 0.0758 -5.2323 0.0358
											CHANNELS 3 Zrotation Xrotation Yrotation
											JOINT LeftHandPinky4
											{
												OFFSET -0.1312 -5.5702 0.001
												CHANNELS 3 Zrotation Xrotation Yrotation
											}
										}
									}
								}
								JOINT LeftHandRing1
								{
									OFFSET 6.2716 22.7261 1.7123
									CHANNELS 3 Zrotation Xrotation Yrotation
									JOINT LeftHandRing2
									{
										OFFSET -0.0452 -6.4083 0.0434
										CHANNELS 3 Zrotation Xrotation Yrotation
										JOINT LeftHandRing3
										{
											OFFSET -0.1152 -6.1487 -0.0756
											CHANNELS 3 Zrotation Xrotation Yrotation
											JOINT LeftHandRing4
											{
												OFFSET -0.2306 -6.141 -0.0323
												CHANNELS 3 Zrotation Xrotation Yrotation
											}
										}
									}
								}
								JOINT LeftHandMiddle1
								{
									OFFSET -0 23.374 -0
									CHANNELS 3 Zrotation Xrotation Yrotation
									JOINT LeftHandMiddle2
									{
										OFFSET -0.1878 -6.9921 -0.168
										CHANNELS 3 Zrotation Xrotation Yrotation
										JOINT LeftHandMiddle3
										{
											OFFSET -0.0477 -7.0158 0.0144
											CHANNELS 3 Zrotation Xrotation Yrotation
											JOINT LeftHandMiddle4
											{
												OFFSET -0.0402 -7.7215 -0.0133
												CHANNELS 3 Zrotation Xrotation Yrotation
											}
										}
									}
								}
								JOINT LeftHandIndex1
								{
									OFFSET -6.1355 21.3106 -1.073
									CHANNELS 3 Zrotation Xrotation Yrotation
									JOINT LeftHandIndex2
									{
										OFFSET 0.0766 -7.536 -0.0238
										CHANNELS 3 Zrotation Xrotation Yrotation
										JOINT LeftHandIndex3
										{
											OFFSET -0.0927 -7.5116 0.0451
											CHANNELS 3 Zrotation Xrotation Yrotation
											JOINT LeftHandIndex4
											{
												OFFSET -0.0002 -10.2123 -0.0339
												CHANNELS 3 Zrotation Xrotation Yrotation
											}
										}
									}
								}
							}
						}
					}
				}
				JOINT RightShoulder
				{
					OFFSET -17.3995 23.8766 -6.0721
					CHANNELS 3 Zrotation Xrotation Yrotation
					JOINT RightArm
					{
						OFFSET 0 19.9201 0
						CHANNELS 3 Zrotation Xrotation Yrotation
						JOINT RightForeArm
						{
							OFFSET 0 49.2901 0
							CHANNELS 3 Zrotation Xrotation Yrotation
							JOINT RightHand
							{
								OFFSET -0 31.562 0
								CHANNELS 3 Zrotation Xrotation Yrotation
								JOINT RightHandThumb1
								{
									OFFSET 7.9466 6.134 2.4863
									CHANNELS 3 Zrotation Xrotation Yrotation
									JOINT RightHandThumb2
									{
										OFFSET 0.0255 -7.7944 -0.0327
										CHANNELS 3 Zrotation Xrotation Yrotation
										JOINT RightHandThumb3
										{
											OFFSET 0.0205 -8.3869 0.0307
											CHANNELS 3 Zrotation Xrotation Yrotation
											JOINT RightHandThumb4
											{
												OFFSET -0.0565 -7.2511 -0.013
												CHANNELS 3 Zrotation Xrotation Yrotation
											}
										}
									}
								}
								JOINT RightHandIndex1
								{
									OFFSET 6.1355 21.3106 -1.073
									CHANNELS 3 Zrotation Xrotation Yrotation
									JOINT RightHandIndex2
									{
										OFFSET -0.0766 -7.536 -0.0238
										CHANNELS 3 Zrotation Xrotation Yrotation
										JOINT RightHandIndex3
										{
											OFFSET 0.0927 -7.5116 0.0451
											CHANNELS 3 Zrotation Xrotation Yrotation
											JOINT RightHandIndex4
											{
												OFFSET 0.0002 -10.2123 -0.0339
												CHANNELS 3 Zrotation Xrotation Yrotation
											}
										}
									}
								}
								JOINT RightHandMiddle1
								{
									OFFSET 0 23.374 -0
									CHANNELS 3 Zrotation Xrotation Yrotation
									JOINT RightHandMiddle2
									{
										OFFSET 0.1878 -6.9921 -0.168
										CHANNELS 3 Zrotation Xrotation Yrotation
										JOINT RightHandMiddle3
										{
											OFFSET 0.0477 -7.0158 0.0144
											CHANNELS 3 Zrotation Xrotation Yrotation
											JOINT RightHandMiddle4
											{
												OFFSET 0.0402 -7.7215 -0.0133
												CHANNELS 3 Zrotation Xrotation Yrotation
											}
										}
									}
								}
								JOINT RightHandRing1
								{
									OFFSET -6.2716 22.7261 1.7123
									CHANNELS 3 Zrotation Xrotation Yrotation
									JOINT RightHandRing2
									{
										OFFSET 0.0452 -6.4083 0.0434
										CHANNELS 3 Zrotation Xrotation Yrotation
										JOINT RightHandRing3
										{
											OFFSET 0.1152 -6.1487 -0.0756
											CHANNELS 3 Zrotation Xrotation Yrotation
											JOINT RightHandRing4
											{
												OFFSET 0.2306 -6.141 -0.0323
												CHANNELS 3 Zrotation Xrotation Yrotation
											}
										}
									}
								}
								JOINT RightHandPinky1
								{
									OFFSET -10.9531 18.9207 3.2871
									CHANNELS 3 Zrotation Xrotation Yrotation
									JOINT RightHandPinky2
									{
										OFFSET 0.0034 -4.9187 0.0963
										CHANNELS 3 Zrotation Xrotation Yrotation
										JOINT RightHandPinky3
										{
											OFFSET -0.0758 -5.2323 0.0358
											CHANNELS 3 Zrotation Xrotation Yrotation
											JOINT RightHandPinky4
											{
												OFFSET 0.1312 -5.5702 0.001
												CHANNELS 3 Zrotation Xrotation Yrotation
											}
										}
									}
								}
							}
						}
					}
				}
			}
		}
	}
	JOINT LeftUpLeg
	{
		OFFSET 19.8991 -7.8851 -3.4295
		CHANNELS 3 Zrotation Xrotation Yrotation
		JOINT LeftLeg
		{
			OFFSET -0 38.4457 -0
			CHANNELS 3 Zrotation Xrotation Yrotation
			JOINT LeftFoot
			{
				OFFSET -0.1321 32.8117 -0.1889
				CHANNELS 3 Zrotation Xrotation Yrotation
				JOINT LeftToeBase
				{
					OFFSET 0 24.02 0
					CHANNELS 3 Zrotation Xrotation Yrotation
					JOINT LeftToe_End
					{
						OFFSET -0 16.6166 -0
						CHANNELS 3 Zrotation Xrotation Yrotation
					}
				}
			}
		}
	}
	JOINT RightUpLeg
	{
		OFFSET -19.8991 -7.8851 -3.4295
		CHANNELS 3 Zrotation Xrotation Yrotation
		JOINT RightLeg
		{
			OFFSET 0 38.4457 -0
			CHANNELS 3 Zrotation Xrotation Yrotation
			JOINT RightFoot
			{
				OFFSET 0.1321 32.8117 -0.1889
				CHANNELS 3 Zrotation Xrotation Yrotation
				JOINT RightToeBase
				{
					OFFSET -0 24.02 0
					CHANNELS 3 Zrotation Xrotation Yrotation
					JOINT RightToe_End
					{
						OFFSET 0 16.6166 -0
						CHANNELS 3 Zrotation Xrotation Yrotation
					}
				}
			}
		}
	}
}
MOTION
Frames: 6
Frame Time: 0.0333333
7.9208	78.8422	-3.7831	0.662127	11.6994	-21.317	1.59927	4.11661	-0.683564	1.4194	6.57881	-1.41542	1.86431	22.792	-1.41696	-4.09667	24.456	2.42773	-10.2521	-44.1453	5.32288	-0	-55.7115	-0	-85.109	-0.851665	13.8331	-70.1074	48.0442	53.0024	81.5524	41.3468	-1.64131	5.30211	-17.3737	52.1271	-143.189	-2.67656	-131.279	9.50468	8.25641	-10.0831	53.3276	-2.20911	27.1347	-8.6489	-1.81523	-33.3438	130.409	-19.6198	-175.598	5.20812	36.4241	-10.5947	20.7061	53.4607	-28.9101	-0.569979	-8.19974	-4.84949	153.241	15.3684	-171.237	1.7972	57.8006	0.548923	2.54665	29.2668	-7.21956	-0	-6.0471	-0	-173.031	-3.69285	-177.418	-23.2444	63.542	27.659	-2.5472	15.7685	1.60179	0.291655	-5.22659	-2.24865	-140.819	-12.3851	-173.276	-4.03741	13.5186	6.3811	-26.8665	36.5609	30.4271	-2.39024	-0.645758	5.07582	82.6898	8.06288	-14.075	78.287	56.0248	-51.2267	-85.715	41.8142	4.15586	3.39865	13.126	-56.8299	118.64	14.8755	146.956	-35.0022	-19.1511	-5.55884	0.754176	14.8307	3.6246	8.6489	-1.81523	33.3438	167.982	7.08234	-167.648	18.5656	31.4831	-21.5507	5.58283	13.6581	-9.07459	2.39024	-0.645758	-5.07582	-177.125	8.5703	178.067	32.1347	68.1114	-36.0482	8.21037	42.0388	-6.41744	-0.291655	-5.22659	2.24865	-168.684	-13.4773	176.211	-3.01228	39.1675	-2.91149	-1.46156	-1.24184	0.546328	-0	-6.0471	-0	-151.948	-45.5735	-177.584	-24.3436	60.8216	35.6017	-11.6988	43.8486	18.1198	0.569979	-8.19974	4.84949	-126.765	43.4006	-50.4184	71.6382	-84.0429	61.6387	-58.3616	64.5906	44.5793	-2.9017	56.6177	3.58163	-0.214127	1.01299	0.205132	141.522	39.749	40.0132	-35.0917	-79.4794	-26.3931	58.3049	65.3753	-44.9796	2.91479	56.3181	-3.54984	0.214127	1.01299	-0.205132
8.0727	78.8759	-3.6879	0.666474	11.6974	-21.4298	1.54429	4.07831	-0.678919	1.30857	6.54684	-1.44221	1.77241	22.7592	-1.44655	-3.9398	24.4632	2.46259	-10.2316	-44.0895	5.35551	-0	-55.7115	-0	-84.8699	-0.750259	13.8431	-69.962	47.8327	52.7972	81.4173	41.3292	-1.56015	5.45399	-17.3551	52.2124	-143.189	-2.67656	-131.279	9.50468	8.25641	-10.0831	53.3277	-2.2092	27.1347	-8.6489	-1.81523	-33.3438	130.409	-19.6198	-175.598	5.20812	36.4241	-10.5947	20.7061	53.4607	-28.9101	-0.569979	-8.19974	-4.84949	153.241	15.3684	-171.237	1.7972	57.8006	0.548923	2.54655	29.2668	-7.21956	-0	-6.0471	-0	-173.031	-3.69285	-177.418	-23.2444	63.542	27.659	-2.5472	15.7685	1.60179	0.291655	-5.22659	-2.24865	-140.819	-12.3851	-173.276	-4.03741	13.5186	6.3811	-26.8665	36.5609	30.4271	-2.39024	-0.645758	5.07582	82.9492	8.09484	-14.1247	78.2972	56.2854	-50.9992	-85.3863	41.7825	3.95631	3.5512	13.2447	-57.3887	118.64	14.8755	146.956	-35.0022	-19.1511	-5.55884	0.754176	14.8307	3.6246	8.6489	-1.81523	33.3438	167.982	7.08234	-167.648	18.5656	31.483	-21.5506	5.58283	13.6581	-9.07459	2.39024	-0.645758	-5.07582	-177.125	8.5703	178.067	32.1347	68.1114	-36.0482	8.21037	42.0388	-6.41744	-0.291655	-5.22659	2.24865	-168.684	-13.4773	176.211	-3.01238	39.1675	-2.91149	-1.46156	-1.24184	0.546328	-0	-6.0471	-0	-151.948	-45.5735	-177.583	-24.3436	60.8216	35.6017	-11.6988	43.8486	18.1198	0.569979	-8.19974	4.84949	-126.889	43.3283	-50.3982	72.4122	-84.1585	62.3703	-58.356	64.7548	44.74	-2.89815	56.6758	3.58169	-0.214127	1.01299	0.205132	141.496	39.6913	39.9924	-34.5548	-79.223	-25.913	58.0847	65.2755	-44.7609	2.90877	56.2207	-3.4702	0.214127	1.01299	-0.205132
8.2128	78.8902	-3.6011	0.655543	11.6864	-21.5454	1.51995	4.03752	-0.678183	1.22867	6.51395	-1.47855	1.71371	22.7256	-1.48479	-3.83638	24.4672	2.4952	-10.2612	-44.0301	5.38372	-0	-55.7115	-0	-84.7007	-0.681981	13.8496	-69.7954	47.5707	52.6071	81.304	41.3144	-1.49215	5.60405	-17.3316	52.2161	-143.189	-2.67656	-131.279	9.50468	8.25641	-10.0831	53.3276	-2.20911	27.1347	-8.6489	-1.81523	-33.3438	130.41	-19.6198	-175.598	5.20812	36.4241	-10.5947	20.7061	53.4607	-28.9101	-0.569979	-8.19974	-4.84949	153.241	15.3684	-171.237	1.7972	57.8006	0.548923	2.54665	29.2668	-7.21956	-0	-6.0471	-0	-173.031	-3.69285	-177.418	-23.2444	63.542	27.659	-2.5472	15.7685	1.60179	0.291655	-5.22659	-2.24865	-140.819	-12.3851	-173.276	-4.03741	13.5186	6.3811	-26.8665	36.5609	30.4271	-2.39024	-0.645758	5.07582	83.1456	8.10527	-14.1623	78.3632	56.5516	-50.9451	-85.0118	41.7453	3.72916	3.69093	13.3713	-57.8693	118.64	14.8755	146.956	-35.0022	-19.151	-5.55883	0.754202	14.8307	3.6245	8.6489	-1.81523	33.3438	167.982	7.08234	-167.648	18.5657	31.483	-21.5506	5.58283	13.6581	-9.07459	2.39024	-0.645758	-5.07582	-177.125	8.5703	178.067	32.1345	68.1115	-36.0479	8.21037	42.0388	-6.41744	-0.291655	-5.22659	2.24865	-168.684	-13.4773	176.211	-3.01238	39.1675	-2.91149	-1.46146	-1.24184	0.546228	-0	-6.0471	-0	-151.948	-45.5735	-177.583	-24.3436	60.8216	35.6017	-11.6988	43.8486	18.1198	0.569979	-8.19974	4.84949	-126.975	43.2621	-50.3956	73.6512	-84.2367	63.5858	-58.4151	64.9116	44.9344	-2.89461	56.7362	3.5818	-0.214127	1.01299	0.205132	141.463	39.6367	40.0039	-34.2042	-79.0082	-25.6472	57.8919	65.205	-44.5868	2.90437	56.1233	-3.39799	0.214127	1.01299	-0.205132
8.3365	78.8748	-3.5208	0.625841	11.6768	-21.6438	1.52993	4.00412	-0.676351	1.19145	6.48788	-1.50554	1.6914	22.6994	-1.5115	-3.8052	24.4714	2.51726	-10.3298	-43.9759	5.39661	-0	-55.7115	-0	-84.6323	-0.657021	13.8522	-69.652	47.3194	52.4552	81.2555	41.3079	-1.46311	5.64496	-17.3034	52.1061	-143.189	-2.67656	-131.279	9.50468	8.25641	-10.0831	53.3276	-2.20911	27.1347	-8.6489	-1.81523	-33.3438	130.41	-19.6198	-175.598	5.20804	36.4242	-10.5946	20.7061	53.4607	-28.9101	-0.569979	-8.19974	-4.84949	153.241	15.3684	-171.237	1.7972	57.8006	0.548923	2.54655	29.2668	-7.21956	-0	-6.0471	-0	-173.031	-3.69285	-177.418	-23.2444	63.542	27.659	-2.5472	15.7685	1.60179	0.291655	-5.22659	-2.24865	-140.819	-12.3851	-173.276	-4.03741	13.5186	6.3811	-26.8665	36.5609	30.4271	-2.39024	-0.645758	5.07582	83.2499	8.09594	-14.1819	78.4524	56.7444	-51.0258	-84.7176	41.7152	3.55082	3.79636	13.4683	-58.1625	118.64	14.8755	146.956	-35.0022	-19.1511	-5.55884	0.754176	14.8307	3.6246	8.6489	-1.81523	33.3438	167.982	7.08234	-167.648	18.5656	31.4831	-21.5507	5.58283	13.6581	-9.07459	2.39024	-0.645758	-5.07582	-177.125	8.5703	178.067	32.1347	68.1114	-36.0482	8.21037	42.0388	-6.41744	-0.291655	-5.22659	2.24865	-168.684	-13.4773	176.211	-3.01238	39.1675	-2.91149	-1.46146	-1.24184	0.546228	-0	-6.0471	-0	-151.948	-45.5735	-177.584	-24.3436	60.8216	35.6017	-11.6988	43.8486	18.1198	0.569979	-8.19974	4.84949	-126.999	43.2314	-50.4315	75.5989	-84.2747	65.5242	-58.5358	65.0652	45.1654	-2.89048	56.8048	3.58195	-0.214127	1.01299	0.205132	141.42	39.5886	40.0417	-34.062	-78.8588	-25.602	57.7732	65.159	-44.4791	2.90193	56.0405	-3.34391	0.214127	1.01299	-0.205132
8.4322	78.8333	-3.4493	0.590367	11.6749	-21.7046	1.56079	3.98723	-0.668618	1.18965	6.47758	-1.50612	1.69155	22.6891	-1.50944	-3.83398	24.4751	2.5248	-10.3971	-43.9355	5.39933	-0	-55.7115	-0	-84.6551	-0.669354	13.8514	-69.5526	47.1345	52.3396	81.2814	41.3113	-1.47864	5.53496	-17.2599	51.9181	-143.189	-2.67664	-131.279	9.50466	8.25631	-10.0831	53.3276	-2.20911	27.1347	-8.6489	-1.81523	-33.3438	130.41	-19.6198	-175.598	5.20814	36.4242	-10.5947	20.7061	53.4607	-28.9101	-0.569979	-8.19974	-4.84949	153.241	15.3684	-171.237	1.7972	57.8006	0.548923	2.54655	29.2668	-7.21956	-0	-6.0471	-0	-173.031	-3.69285	-177.418	-23.2444	63.542	27.659	-2.5472	15.7685	1.60179	0.291655	-5.22659	-2.24865	-140.819	-12.3851	-173.276	-4.03741	13.5186	6.3811	-26.8665	36.5609	30.4271	-2.39024	-0.645758	5.07582	83.2713	8.07669	-14.1852	78.517	56.8115	-51.1381	-84.6052	41.7035	3.48274	3.85888	13.5087	-58.2421	118.64	14.8755	146.956	-35.0022	-19.1511	-5.55884	0.754176	14.8307	3.6246	8.6489	-1.81523	33.3438	167.982	7.08234	-167.648	18.5657	31.4831	-21.5507	5.58283	13.6581	-9.07459	2.39024	-0.645758	-5.07582	-177.125	8.5703	178.067	32.1347	68.1114	-36.0482	8.21037	42.0388	-6.41744	-0.291655	-5.22659	2.24865	-168.684	-13.4773	176.211	-3.0123	39.1675	-2.91162	-1.46146	-1.24184	0.546328	-0	-6.0471	-0	-151.948	-45.5735	-177.583	-24.3435	60.8216	35.6015	-11.6988	43.8486	18.1198	0.569979	-8.19974	4.84949	-126.97	43.2502	-50.5112	77.9379	-84.2712	67.8761	-58.6579	65.2079	45.3901	-2.88634	56.8762	3.58221	-0.214127	1.01299	0.205132	141.367	39.5509	40.086	-34.1164	-78.7882	-25.7338	57.7728	65.1362	-44.4605	2.90145	55.9777	-3.31181	0.214127	1.01299	-0.205132
8.4916	78.7828	-3.3932	0.56298	11.6763	-21.7165	1.58998	3.99144	-0.653285	1.20422	6.48897	-1.47405	1.69344	22.701	-1.47293	-3.89126	24.4742	2.51929	-10.4199	-43.9117	5.40634	-0	-55.7115	-0	-84.731	-0.702277	13.8487	-69.4909	47.0478	52.2407	81.3549	41.3211	-1.52267	5.31802	-17.1962	51.7269	-143.189	-2.67656	-131.279	9.50466	8.25631	-10.0831	53.3276	-2.20911	27.1347	-8.6489	-1.81523	-33.3438	130.41	-19.6198	-175.598	5.20804	36.4242	-10.5946	20.7061	53.4607	-28.9101	-0.569979	-8.19974	-4.84949	153.241	15.3684	-171.237	1.7972	57.8006	0.548923	2.54655	29.2668	-7.21956	-0	-6.0471	-0	-173.031	-3.69285	-177.418	-23.2444	63.542	27.659	-2.5472	15.7685	1.60179	0.291655	-5.22659	-2.24865	-140.819	-12.3851	-173.276	-4.03741	13.5186	6.3811	-26.8665	36.5609	30.4271	-2.39024	-0.645758	5.07582	83.2431	8.05896	-14.1788	78.511	56.7475	-51.1753	-84.7046	41.7138	3.54297	3.88135	13.4847	-58.1542	118.64	14.8755	146.956	-35.0022	-19.1511	-5.55884	0.754176	14.8307	3.6246	8.6489	-1.81523	33.3438	167.982	7.08234	-167.648	18.5656	31.4831	-21.5507	5.58283	13.6581	-9.07459	2.39024	-0.645758	-5.07582	-177.125	8.5703	178.067	32.1347	68.1114	-36.0482	8.21037	42.0388	-6.41744	-0.291655	-5.22659	2.24865	-168.684	-13.4773	176.211	-3.01238	39.1675	-2.91149	-1.46156	-1.24184	0.546328	-0	-6.0471	-0	-151.948	-45.5735	-177.584	-24.3436	60.8216	35.6017	-11.6988	43.8486	18.1198	0.569979	-8.19974	4.84949	-126.921	43.3092	-50.6038	80.0319	-84.2353	69.9995	-58.7139	65.3156	45.5415	-2.88246	56.9408	3.58236	-0.214127	1.01299	0.205132	141.31	39.5165	40.1234	-34.3004	-78.7892	-25.9588	57.8787	65.1382	-44.5249	2.90197	55.9356	-3.29587	0.214127	1.01299	-0.205132
